# Blender v2.79 (sub 0) OBJ File: 'troto.blend'
# www.blender.org
mtllib pax2.mtl
o Cube.001
v -1.150415 0.823744 1.006778
v -1.108317 2.853264 1.560310
v -0.941988 0.663509 -0.657370
v -1.492997 2.724275 -1.296038
v 0.472901 0.561745 0.819575
v 0.476803 3.094140 1.211934
v 0.548769 0.414464 -1.007601
v 0.725792 2.778483 -0.984350
v -1.253945 2.576177 4.841955
v 0.746055 0.576177 4.841955
v 0.746055 2.576177 4.841955
v 0.746055 0.576177 2.841955
v 0.746055 2.576177 2.841955
v -0.996196 3.279196 4.561661
v 0.576717 4.143404 3.831993
v -0.996196 4.537125 3.381706
v -0.996196 3.767444 4.651089
v 0.576717 3.373723 5.101376
v 0.746055 2.576177 2.841955
v 0.746055 0.576177 2.841955
v 0.746055 0.576177 4.841955
v 0.746055 2.576177 4.841955
vn -0.9914 -0.1224 0.0465
vn -0.0176 -0.1392 -0.9901
vn 0.9954 -0.0440 0.0854
vn 0.1600 -0.2020 0.9662
vn -0.1489 -0.9860 0.0747
vn -0.0779 0.9933 -0.0853
usemtl None
s off
f 1//1 2//1 4//1 3//1
f 3//2 4//2 8//2 7//2
f 7//3 8//3 6//3 5//3
f 5//4 6//4 2//4 1//4
f 3//5 7//5 5//5 1//5
f 8//6 4//6 2//6 6//6
l 10 21
l 22 11
l 12 20
l 19 13
