# Blender v2.79 (sub 0) OBJ File: 'troto.blend'
# www.blender.org
mtllib pax3.mtl
o Cube_Cube.002
v -1.348415 0.013174 0.573694
v -1.348415 2.013174 0.573694
v -1.348415 0.013174 -1.426306
v -1.348415 2.013174 -1.426306
v 0.651585 0.013174 0.573694
v 0.651585 2.013174 0.573694
v 0.651585 0.013174 -1.426306
v 0.651585 2.013174 -1.426306
v -1.348415 1.268896 0.573694
v -1.348415 1.268896 -1.426306
v 0.651585 1.268896 -1.426306
v 0.651585 1.268896 0.573694
v -1.274577 0.891944 -1.352468
v 0.577747 0.891944 -1.352468
v 0.577747 0.891944 0.499856
v -1.274577 0.891944 0.499856
v -1.348415 0.519176 -1.426306
v 0.651585 0.519176 -1.426306
v 0.651585 0.519176 0.573694
v -1.348415 0.519176 0.573694
v -1.266299 1.639252 0.491578
v -1.266299 1.639252 -1.344190
v 0.569469 1.639252 -1.344190
v 0.569469 1.639252 0.491578
vn -0.9767 -0.2145 0.0000
vn 0.0000 -0.2145 -0.9767
vn 0.9767 -0.2145 0.0000
vn 0.0000 -0.2145 0.9767
vn 0.0000 -1.0000 0.0000
vn 0.0000 1.0000 0.0000
vn 0.0000 -0.1922 0.9814
vn 0.9814 -0.1922 0.0000
vn 0.0000 -0.1922 -0.9814
vn -0.9814 -0.1922 0.0000
vn -0.9809 0.1943 0.0000
vn 0.0000 0.1943 -0.9809
vn 0.9809 0.1943 0.0000
vn 0.0000 0.1943 0.9809
vn 0.0000 0.0000 1.0000
vn 1.0000 0.0000 0.0000
vn 0.0000 0.0000 -1.0000
vn -1.0000 0.0000 0.0000
vn 0.0000 0.2165 0.9763
vn 0.9763 0.2165 0.0000
vn 0.0000 0.2165 -0.9763
vn -0.9763 0.2165 0.0000
usemtl None
s off
f 21//1 2//1 4//1 22//1
f 22//2 4//2 8//2 23//2
f 23//3 8//3 6//3 24//3
f 24//4 6//4 2//4 21//4
f 3//5 7//5 5//5 1//5
f 8//6 4//6 2//6 6//6
f 15//7 12//7 9//7 16//7
f 14//8 11//8 12//8 15//8
f 13//9 10//9 11//9 14//9
f 16//10 9//10 10//10 13//10
f 20//11 16//11 13//11 17//11
f 17//12 13//12 14//12 18//12
f 18//13 14//13 15//13 19//13
f 19//14 15//14 16//14 20//14
f 5//15 19//15 20//15 1//15
f 7//16 18//16 19//16 5//16
f 3//17 17//17 18//17 7//17
f 1//18 20//18 17//18 3//18
f 12//19 24//19 21//19 9//19
f 11//20 23//20 24//20 12//20
f 10//21 22//21 23//21 11//21
f 9//22 21//22 22//22 10//22
